<svg width="560" height="800" viewBox="0 0 560 800" xmlns="http://www.w3.org/2000/svg">
  
  <rect width="560" height="800" fill="#eef2f4"></rect>

  
  <rect x="0" y="0" width="560" height="54" fill="#11161a"></rect>
  <text x="32" y="36" font-family="IBM Plex Mono, monospace" font-size="13" letter-spacing="5" fill="#eef2f4">RUCKING REVOLUTION · FIELD GUIDE 01</text>

  
  <rect x="0" y="54" width="560" height="5" fill="#8a1e1e"></rect>

  
  <g transform="translate(40 110)">
    <text font-family="IBM Plex Mono, monospace" font-size="13" letter-spacing="4" fill="#8a1e1e">30-DAY PLAN · BEGINNER</text>
    <g font-family="Archivo, sans-serif" font-weight="700" letter-spacing="-3">
      <text y="78" font-size="76" fill="#11161a">YOUR FIRST</text>
      <text y="160" font-size="76" fill="#8a1e1e">RUCK.</text>
    </g>
  </g>

  
  <g transform="translate(40 336)">
    <g font-family="IBM Plex Mono, monospace" font-size="11" letter-spacing="3" fill="#4f5a63">
      <text y="-10">DAY 01 ─────────────── DAY 30</text>
    </g>

    
    <g transform="translate(0 0)">
      <rect x="0" width="68" height="68" fill="#11161a"></rect>
      <rect x="80" width="68" height="68" fill="#11161a"></rect>
      <rect x="160" width="68" height="68" fill="none" stroke="#11161a" stroke-width="2"></rect>
      <rect x="240" width="68" height="68" fill="#11161a"></rect>
      <rect x="320" width="68" height="68" fill="#11161a"></rect>
      <rect x="400" width="68" height="68" fill="none" stroke="#11161a" stroke-width="2"></rect>
    </g>
    <g transform="translate(0 76)">
      <rect x="0" width="68" height="68" fill="#11161a"></rect>
      <rect x="80" width="68" height="68" fill="#8a1e1e"></rect>
      <rect x="160" width="68" height="68" fill="#11161a"></rect>
      <rect x="240" width="68" height="68" fill="#11161a"></rect>
      <rect x="320" width="68" height="68" fill="none" stroke="#11161a" stroke-width="2"></rect>
      <rect x="400" width="68" height="68" fill="#11161a"></rect>
    </g>
    <g transform="translate(0 152)">
      <rect x="0" width="68" height="68" fill="#11161a"></rect>
      <rect x="80" width="68" height="68" fill="#11161a"></rect>
      <rect x="160" width="68" height="68" fill="#11161a"></rect>
      <rect x="240" width="68" height="68" fill="#667684"></rect>
      <rect x="320" width="68" height="68" fill="#11161a"></rect>
      <rect x="400" width="68" height="68" fill="#11161a"></rect>
    </g>
    <g transform="translate(0 228)">
      <rect x="0" width="68" height="68" fill="none" stroke="#11161a" stroke-width="2"></rect>
      <rect x="80" width="68" height="68" fill="#11161a"></rect>
      <rect x="160" width="68" height="68" fill="#11161a"></rect>
      <rect x="240" width="68" height="68" fill="#11161a"></rect>
      <rect x="320" width="68" height="68" fill="#8a1e1e"></rect>
      <rect x="400" width="68" height="68" fill="#11161a"></rect>
    </g>
    <g transform="translate(0 304)">
      <rect x="0" width="68" height="68" fill="#11161a"></rect>
      <rect x="80" width="68" height="68" fill="#11161a"></rect>
      <rect x="160" width="68" height="68" fill="#11161a"></rect>
      <rect x="240" width="68" height="68" fill="#11161a"></rect>
      <rect x="320" width="68" height="68" fill="#11161a"></rect>
      <rect x="400" width="68" height="68" fill="#8a1e1e"></rect>
    </g>
  </g>

  
  <g transform="translate(40 724)" font-family="IBM Plex Mono, monospace" font-size="11" letter-spacing="3" fill="#11161a">
    <rect x="0" y="-4" width="18" height="18" fill="#11161a"></rect><text x="26" y="10">DONE</text>
    <rect x="110" y="-4" width="18" height="18" fill="#8a1e1e"></rect><text x="136" y="10">HARD DAY</text>
    <rect x="240" y="-4" width="18" height="18" fill="#667684"></rect><text x="266" y="10">MILESTONE</text>
    <rect x="370" y="-4" width="18" height="18" fill="none" stroke="#11161a" stroke-width="2"></rect><text x="396" y="10">REST</text>
  </g>
  <g transform="translate(40 760)">
    <line x1="0" y1="0" x2="480" y2="0" stroke="#11161a" stroke-width="1"></line>
    <text y="22" font-family="IBM Plex Mono, monospace" font-size="11" letter-spacing="3" fill="#4f5a63">ALEXANDER</text>
    <text x="480" y="22" text-anchor="end" font-family="IBM Plex Mono, monospace" font-size="11" letter-spacing="3" fill="#4f5a63">RUCKING REVOLUTION</text>
  </g>
</svg>