<svg width="560" height="800" viewBox="0 0 560 800" xmlns="http://www.w3.org/2000/svg">
  
  <rect width="560" height="800" fill="#eef2f4"></rect>
  <rect x="0" y="0" width="560" height="54" fill="#11161a"></rect>
  <text x="32" y="36" font-family="IBM Plex Mono, monospace" font-size="13" letter-spacing="5" fill="#eef2f4">RUCKING REVOLUTION · FIELD GUIDE 02</text>
  <rect x="0" y="54" width="560" height="5" fill="#8a1e1e"></rect>

  
  <g transform="translate(40 100)" font-family="IBM Plex Mono, monospace" font-size="11" letter-spacing="4" fill="#8a1e1e">
    <text>STEP ONE · OPEN THE DOOR</text>
  </g>

  
  <g transform="translate(280 420)">
    
    <rect x="-130" y="-170" width="260" height="340" fill="none" stroke="#11161a" stroke-width="2"></rect>
    
    <rect x="-100" y="-140" width="200" height="280" fill="none" stroke="#11161a" stroke-width="2"></rect>
    <rect x="-70" y="-110" width="140" height="220" fill="none" stroke="#11161a" stroke-width="2"></rect>
    
    <polygon points="-40,-80 -40,80 30,60 30,-60" fill="#8a1e1e"></polygon>
    
    <polygon points="30,-60 30,60 52,80 52,-80" fill="#eef2f4" stroke="#11161a" stroke-width="2"></polygon>
    
    <circle cx="-12" cy="0" r="4" fill="#11161a"></circle>

    
    <g transform="translate(38 22)" fill="#11161a">
      <rect x="0" y="0" width="6" height="9" rx="1"></rect>
      <rect x="4" y="2" width="4" height="10" rx="1"></rect>
      <circle cx="6" cy="-2" r="2.4"></circle>
      <rect x="4" y="11" width="2" height="5" transform="rotate(-10 5 11)"></rect>
      <rect x="7" y="11" width="2" height="5" transform="rotate(10 8 11)"></rect>
    </g>

    
    <line x1="-130" y1="170" x2="130" y2="170" stroke="#11161a" stroke-width="2"></line>
  </g>

  
  <g transform="translate(40 620)" font-family="Archivo, sans-serif" font-weight="700" letter-spacing="-3" fill="#11161a">
    <text y="0" font-size="72">RUCK YOUR</text>
    <text y="76" font-size="72">WAY </text>
    <text x="192" y="76" font-size="72" fill="#8a1e1e">OUT.</text>
  </g>

  
  <g transform="translate(40 754)">
    <line x1="0" y1="0" x2="480" y2="0" stroke="#11161a" stroke-width="1"></line>
    <text y="22" font-family="IBM Plex Mono, monospace" font-size="11" letter-spacing="3" fill="#4f5a63">ALEXANDER</text>
    <text x="480" y="22" text-anchor="end" font-family="IBM Plex Mono, monospace" font-size="11" letter-spacing="3" fill="#4f5a63">RUCKING REVOLUTION</text>
  </g>
</svg>