<svg width="560" height="800" viewBox="0 0 560 800" xmlns="http://www.w3.org/2000/svg">
  
  <rect width="560" height="800" fill="#11161a"></rect>
  <rect x="0" y="0" width="560" height="54" fill="#eef2f4"></rect>
  <text x="32" y="36" font-family="IBM Plex Mono, monospace" font-size="13" letter-spacing="5" fill="#11161a">RUCKING REVOLUTION · FIELD GUIDE 06</text>
  <rect x="0" y="54" width="560" height="5" fill="#8a1e1e"></rect>

  
  <g transform="translate(40 102)" font-family="IBM Plex Mono, monospace" font-size="11" letter-spacing="4" fill="#8a1e1e">
    <text>THE LOOP · SAME START · SAME FINISH · EVERY WEEK</text>
  </g>

  
  <g transform="translate(280 380)">
    <path d="M 0 -160 &#xA;             C 90 -160 170 -110 170 -40 &#xA;             C 170 40 120 110 50 140&#xA;             C -20 170 -130 140 -170 60&#xA;             C -210 -20 -170 -140 -60 -160&#xA;             Z" fill="none" stroke="#eef2f4" stroke-width="4" stroke-linecap="round"></path>

    
    <g font-family="IBM Plex Mono, monospace" font-size="11" font-weight="700" letter-spacing="2" fill="#11161a">
      
      <circle cx="0" cy="-160" r="14" fill="#8a1e1e"></circle>
      <text x="0" y="-156" text-anchor="middle" fill="#eef2f4">1</text>
      
      <circle cx="170" cy="-40" r="12" fill="#eef2f4"></circle>
      <text x="170" y="-36" text-anchor="middle">2</text>
      
      <circle cx="50" cy="140" r="12" fill="#eef2f4"></circle>
      <text x="50" y="144" text-anchor="middle">3</text>
      
      <circle cx="-170" cy="60" r="12" fill="#eef2f4"></circle>
      <text x="-170" y="64" text-anchor="middle">4</text>
      
      <circle cx="-60" cy="-160" r="12" fill="#eef2f4"></circle>
      <text x="-60" y="-156" text-anchor="middle">5</text>
    </g>

    
    <g fill="#8a1e1e" transform="translate(172 -20) rotate(100)">
      <polygon points="0,-7 14,0 0,7"></polygon>
    </g>

    
    <text x="0" y="-182" text-anchor="middle" font-family="IBM Plex Mono, monospace" font-size="10" letter-spacing="4" fill="#8a1e1e">START · FINISH</text>
  </g>

  
  <g transform="translate(40 610)" font-family="Archivo, sans-serif" font-weight="700" letter-spacing="-3" fill="#eef2f4">
    <text y="0" font-size="72">START A</text>
    <text y="76" font-size="72">RUCK </text>
    <text x="200" y="76" font-size="72" fill="#8a1e1e">CLUB.</text>
  </g>

  
  <g transform="translate(40 720)" font-family="Source Serif 4, serif" font-style="italic" fill="#c9d3da">
    <text font-size="15" y="0">How to build a walking community in your neighbourhood.</text>
  </g>

  
  <g transform="translate(40 770)">
    <line x1="0" y1="-12" x2="480" y2="-12" stroke="#667684" stroke-width="1"></line>
    <text font-family="IBM Plex Mono, monospace" font-size="11" letter-spacing="3" fill="#c9d3da">ALEXANDER</text>
    <text x="480" text-anchor="end" font-family="IBM Plex Mono, monospace" font-size="11" letter-spacing="3" fill="#c9d3da">RUCKING REVOLUTION</text>
  </g>
</svg>