<svg width="640" height="240" viewBox="0 0 640 240" xmlns="http://www.w3.org/2000/svg">
  
  <rect width="640" height="240" fill="#eef2f4"></rect>

  <g transform="translate(120 120)">
    
    <circle r="66" fill="none" stroke="#11161a" stroke-width="2"></circle>
    
    <g stroke="#11161a" stroke-width="2">
      <line x1="0" y1="-66" x2="0" y2="-56"></line>
      <line x1="33" y1="-57.15" x2="28" y2="-48.5"></line>
      <line x1="57.15" y1="-33" x2="48.5" y2="-28"></line>
      <line x1="66" y1="0" x2="56" y2="0"></line>
      <line x1="57.15" y1="33" x2="48.5" y2="28"></line>
      <line x1="33" y1="57.15" x2="28" y2="48.5"></line>
      <line x1="0" y1="66" x2="0" y2="56"></line>
      <line x1="-33" y1="57.15" x2="-28" y2="48.5"></line>
      <line x1="-57.15" y1="33" x2="-48.5" y2="28"></line>
      <line x1="-66" y1="0" x2="-56" y2="0"></line>
      <line x1="-57.15" y1="-33" x2="-48.5" y2="-28"></line>
      <line x1="-33" y1="-57.15" x2="-28" y2="-48.5"></line>
    </g>
    
    <line x1="-80" y1="0" x2="80" y2="0" stroke="#11161a" stroke-width="1"></line>
    <line x1="0" y1="-80" x2="0" y2="80" stroke="#11161a" stroke-width="1"></line>
    
    <polygon points="0,-58 -9,0 0,-10 9,0" fill="#8a1e1e"></polygon>
    
    <polygon points="0,58 -9,0 0,10 9,0" fill="#11161a"></polygon>
    
    <circle r="3" fill="#11161a"></circle>
    
    <text x="0" y="-78" text-anchor="middle" font-family="IBM Plex Mono, monospace" font-size="11" font-weight="700" fill="#8a1e1e" letter-spacing="2">N</text>
  </g>

  
  <g font-family="Archivo, sans-serif" font-weight="700" letter-spacing="-2.5">
    <text x="220" y="120" font-size="56" fill="#11161a">RUCKING</text>
    <text x="220" y="172" font-size="56" fill="#11161a">REVOLUTION</text>
  </g>
  <text x="222" y="200" font-family="IBM Plex Mono, monospace" font-size="11" letter-spacing="4" fill="#667684">BEARING · 000° · TRUE NORTH</text>
</svg>